<svg width="1393" height="301" viewBox="0 0 1393 301" fill="none" xmlns="http://www.w3.org/2000/svg">
<path d="M21.6461 19.5096C34.2131 7.50067 51.2452 0.125 70 0.125H230C261.906 0.125 288.826 21.4712 297.258 50.6613C255.812 51.2371 208.781 48.9383 159.066 43.344C108.916 37.7008 62.1736 29.3952 21.6461 19.5096Z" fill="#00FFDD"/>
<path d="M1.48885 55.6955C0.513054 60.352 0 65.1786 0 70.125V116.297C45.6418 116.687 99.1069 113.156 155.992 105.187C186.297 100.941 215.323 95.751 242.451 89.8745C214.421 88.7448 184.93 86.5068 154.593 83.0932C98.6408 76.7971 46.379 67.2406 1.48885 55.6955Z" fill="#00FFDD"/>
<path d="M300 117.101C258.655 128.22 211.622 137.784 161.541 144.8C133.096 148.785 105.37 151.709 78.879 153.615C104.226 158.227 131.117 162.199 159.067 165.344C209.881 171.062 257.891 173.337 300 172.619V117.101Z" fill="#00FFDD"/>
<path d="M154.594 205.093C184.931 208.507 214.422 210.745 242.452 211.875C215.324 217.751 186.298 222.941 155.993 227.187C99.3036 235.129 46.0106 238.662 0.472327 238.3C0.160373 235.619 0 232.891 0 230.125V177.311C45.222 189.028 98.0217 198.727 154.594 205.093Z" fill="#00FFDD"/>
<path d="M161.542 266.8C211.384 259.817 258.207 250.311 299.409 239.26C294.934 273.603 265.564 300.125 230 300.125H70C49.9759 300.125 31.9155 291.717 19.1567 278.239C62.3835 277.64 110.819 273.906 161.542 266.8Z" fill="#00FFDD"/>
<path d="M540.032 96.3645C563.531 96.3645 583.54 105.322 600.06 123.237C616.812 140.92 625.188 162.674 625.188 188.5C625.188 214.326 616.812 236.197 600.06 254.112C583.54 271.795 563.531 280.636 540.032 280.636C515.602 280.636 496.756 272.144 483.494 255.159V275.75H438.473V31.4505H483.494V121.841C496.756 104.857 515.602 96.3645 540.032 96.3645ZM497.105 224.098C506.179 233.172 517.696 237.709 531.656 237.709C545.616 237.709 557.133 233.172 566.207 224.098C575.513 214.792 580.167 202.926 580.167 188.5C580.167 174.075 575.513 162.325 566.207 153.251C557.133 143.945 545.616 139.291 531.656 139.291C517.696 139.291 506.179 143.945 497.105 153.251C488.031 162.325 483.494 174.075 483.494 188.5C483.494 202.926 488.031 214.792 497.105 224.098Z" fill="white"/>
<path d="M805.612 254.112C787.697 271.795 765.826 280.636 740 280.636C714.174 280.636 692.304 271.795 674.388 254.112C656.706 236.197 647.864 214.326 647.864 188.5C647.864 162.674 656.706 140.92 674.388 123.237C692.304 105.322 714.174 96.3645 740 96.3645C765.826 96.3645 787.697 105.322 805.612 123.237C823.528 140.92 832.485 162.674 832.485 188.5C832.485 214.326 823.528 236.197 805.612 254.112ZM706.147 223.051C715.221 232.125 726.506 236.662 740 236.662C753.495 236.662 764.779 232.125 773.853 223.051C782.927 213.977 787.464 202.46 787.464 188.5C787.464 174.54 782.927 163.023 773.853 153.949C764.779 144.875 753.495 140.338 740 140.338C726.506 140.338 715.221 144.875 706.147 153.949C697.306 163.023 692.885 174.54 692.885 188.5C692.885 202.46 697.306 213.977 706.147 223.051Z" fill="white"/>
<path d="M864.157 275.75V20.9805H909.178V275.75H864.157Z" fill="white"/>
<path d="M972.721 80.3105C965.275 80.3105 958.761 77.6348 953.177 72.2835C947.825 66.6995 945.15 60.1848 945.15 52.7395C945.15 45.2941 947.825 38.7795 953.177 33.1955C958.761 27.6115 965.275 24.8195 972.721 24.8195C980.399 24.8195 986.913 27.6115 992.265 33.1955C997.849 38.7795 1000.64 45.2941 1000.64 52.7395C1000.64 60.1848 997.849 66.6995 992.265 72.2835C986.913 77.6348 980.399 80.3105 972.721 80.3105ZM950.385 275.75V101.25H995.406V275.75H950.385Z" fill="white"/>
<path d="M1256.48 101.25H1301.5V275.75H1256.48V255.159C1242.99 272.144 1224.03 280.636 1199.6 280.636C1176.33 280.636 1156.32 271.795 1139.57 254.112C1123.05 236.197 1114.79 214.326 1114.79 188.5C1114.79 162.674 1123.05 140.92 1139.57 123.237C1156.32 105.322 1176.33 96.3645 1199.6 96.3645C1224.03 96.3645 1242.99 104.857 1256.48 121.841V101.25ZM1173.42 224.098C1182.49 233.172 1194.01 237.709 1207.97 237.709C1221.93 237.709 1233.45 233.172 1242.52 224.098C1251.83 214.792 1256.48 202.926 1256.48 188.5C1256.48 174.075 1251.83 162.325 1242.52 153.251C1233.45 143.945 1221.93 139.291 1207.97 139.291C1194.01 139.291 1182.49 143.945 1173.42 153.251C1164.35 162.325 1159.81 174.075 1159.81 188.5C1159.81 202.926 1164.35 214.792 1173.42 224.098Z" fill="white"/>
<path d="M1364.66 80.3105C1357.22 80.3105 1350.7 77.6348 1345.12 72.2835C1339.77 66.6995 1337.09 60.1848 1337.09 52.7395C1337.09 45.2941 1339.77 38.7795 1345.12 33.1955C1350.7 27.6115 1357.22 24.8195 1364.66 24.8195C1372.34 24.8195 1378.86 27.6115 1384.21 33.1955C1389.79 38.7795 1392.58 45.2941 1392.58 52.7395C1392.58 60.1848 1389.79 66.6995 1384.21 72.2835C1378.86 77.6348 1372.34 80.3105 1364.66 80.3105ZM1342.33 275.75V101.25H1387.35V275.75H1342.33Z" fill="white"/>
</svg>
